<svg width="21" height="21" viewBox="0 0 21 21" fill="none" xmlns="http://www.w3.org/2000/svg">
<path d="M20.6325 0.253169C20.518 0.154953 20.3838 0.082546 20.2388 0.0408751C20.0939 -0.000795933 19.9416 -0.0107527 19.7925 0.0116826L6.1425 2.11156C5.89392 2.14928 5.66713 2.27492 5.50335 2.46567C5.33957 2.65642 5.24967 2.8996 5.25 3.15101V14.0179C4.75941 13.7783 4.22099 13.6527 3.675 13.6504C2.94816 13.6504 2.23763 13.8659 1.63328 14.2697C1.02893 14.6735 0.557896 15.2474 0.279744 15.9189C0.00159232 16.5904 -0.0711849 17.3293 0.0706157 18.0421C0.212416 18.755 0.562426 19.4097 1.07638 19.9237C1.59034 20.4376 2.24516 20.7876 2.95804 20.9294C3.67092 21.0712 4.40984 20.9984 5.08136 20.7203C5.75288 20.4421 6.32684 19.9711 6.73065 19.3668C7.13447 18.7625 7.35 18.052 7.35 17.3252V9.30366L18.9 7.52926V11.918C18.4094 11.6784 17.871 11.5528 17.325 11.5505C16.5982 11.5505 15.8876 11.7661 15.2833 12.1698C14.6789 12.5736 14.2079 13.1476 13.9297 13.819C13.6516 14.4905 13.5788 15.2294 13.7206 15.9422C13.8624 16.6551 14.2124 17.3099 14.7264 17.8238C15.2403 18.3377 15.8952 18.6877 16.608 18.8295C17.3209 18.9713 18.0598 18.8985 18.7314 18.6204C19.4029 18.3423 19.9768 17.8712 20.3807 17.2669C20.7845 16.6626 21 15.9521 21 15.2253V1.05112C21 0.89947 20.9672 0.749613 20.9037 0.611864C20.8403 0.474116 20.7478 0.351744 20.6325 0.253169ZM3.675 18.9001C3.3635 18.9001 3.05899 18.8077 2.79998 18.6347C2.54097 18.4616 2.3391 18.2157 2.21989 17.9279C2.10068 17.6401 2.06949 17.3235 2.13026 17.018C2.19104 16.7125 2.34104 16.4318 2.56131 16.2116C2.78158 15.9913 3.06221 15.8413 3.36773 15.7806C3.67325 15.7198 3.98993 15.751 4.27773 15.8702C4.56552 15.9894 4.8115 16.1912 4.98457 16.4502C5.15763 16.7092 5.25 17.0137 5.25 17.3252C5.25 17.7429 5.08406 18.1435 4.78869 18.4388C4.49332 18.7342 4.09272 18.9001 3.675 18.9001ZM17.325 16.8002C17.0135 16.8002 16.709 16.7079 16.45 16.5348C16.191 16.3618 15.9891 16.1158 15.8699 15.828C15.7507 15.5402 15.7195 15.2236 15.7803 14.9181C15.841 14.6126 15.991 14.3319 16.2113 14.1117C16.4316 13.8914 16.7122 13.7414 17.0177 13.6807C17.3233 13.6199 17.6399 13.6511 17.9277 13.7703C18.2155 13.8895 18.4615 14.0914 18.6346 14.3504C18.8076 14.6093 18.9 14.9138 18.9 15.2253C18.9 15.643 18.7341 16.0436 18.4387 16.339C18.1433 16.6343 17.7427 16.8002 17.325 16.8002ZM18.9 5.39788L7.35 7.17228V4.02246L18.9 2.27955V5.39788Z" fill="black"/>
</svg>
