<svg width="21" height="25" viewBox="0 0 21 25" fill="none" xmlns="http://www.w3.org/2000/svg">
<path d="M13.6667 1V6.06667C13.6667 6.40261 13.8001 6.72479 14.0377 6.96233C14.2752 7.19988 14.5974 7.33333 14.9334 7.33333H20" stroke="black" stroke-width="2" stroke-linecap="round" stroke-linejoin="round"/>
<path d="M17.4667 18.7333H8.59998C7.9281 18.7333 7.28374 18.4664 6.80865 17.9913C6.33355 17.5162 6.06665 16.8719 6.06665 16.2V3.53333C6.06665 2.86145 6.33355 2.21709 6.80865 1.742C7.28374 1.2669 7.9281 1 8.59998 1H13.6667L20 7.33333V16.2C20 16.8719 19.7331 17.5162 19.258 17.9913C18.7829 18.4664 18.1385 18.7333 17.4667 18.7333Z" stroke="black" stroke-width="2" stroke-linecap="round" stroke-linejoin="round"/>
<path d="M14.9333 18.7333V21.2667C14.9333 21.9385 14.6664 22.5829 14.1913 23.058C13.7162 23.5331 13.0719 23.8 12.4 23.8H3.53333C2.86145 23.8 2.21709 23.5331 1.742 23.058C1.2669 22.5829 1 21.9385 1 21.2667V8.6C1 7.92812 1.2669 7.28375 1.742 6.80866C2.21709 6.33357 2.86145 6.06667 3.53333 6.06667H6.06667" stroke="black" stroke-width="2" stroke-linecap="round" stroke-linejoin="round"/>
</svg>
