<svg width="45" height="48" viewBox="0 0 45 48" fill="none" xmlns="http://www.w3.org/2000/svg">
<path fill-rule="evenodd" clip-rule="evenodd" d="M0 17.5147V30.4853C0 36.6027 3.15554e-07 39.6587 1.91118 41.56C3.645 43.2853 6.34235 43.4427 11.43 43.4587C11.1626 41.6587 11.1071 39.512 11.0912 36.984C11.0912 36.7267 11.1415 36.472 11.2393 36.2343C11.3371 35.9967 11.4805 35.7808 11.6612 35.599C11.8419 35.4172 12.0564 35.2731 12.2924 35.1749C12.5285 35.0767 12.7814 35.0263 13.0368 35.0267C13.2923 35.0235 13.5459 35.0711 13.7831 35.1666C14.0204 35.2622 14.2366 35.4039 14.4195 35.5837C14.6024 35.7635 14.7483 35.9778 14.849 36.2144C14.9497 36.451 15.0031 36.7053 15.0062 36.9627C15.0221 39.8 15.0935 41.8107 15.3768 43.336C15.6494 44.808 16.0835 45.656 16.7188 46.2907C17.4415 47.0107 18.4553 47.4773 20.3718 47.7307C22.3412 47.9973 24.9512 48 28.6968 48H31.3041C35.0497 48 37.6597 47.9947 39.6318 47.7333C41.5456 47.4773 42.5594 47.008 43.2794 46.2907C44.0021 45.5707 44.4732 44.5627 44.73 42.6587C44.9947 40.7013 45 38.1013 45 34.3787V13.6213C45 9.896 44.9947 7.30133 44.73 5.34133C44.4732 3.43733 44.0021 2.42667 43.2821 1.70933C42.5594 0.989333 41.5456 0.522667 39.6291 0.269334C37.6624 1.78814e-07 35.0523 0 31.3068 0H28.6994C24.9538 0 22.3438 0.00533309 20.3718 0.266666C18.4579 0.522666 17.4441 0.992 16.7215 1.70933C16.0862 2.34133 15.6521 3.192 15.3794 4.664C15.0962 6.18933 15.0247 8.2 15.0088 11.0373C15.0057 11.2947 14.9523 11.549 14.8516 11.7856C14.751 12.0222 14.6051 12.2365 14.4222 12.4163C14.2393 12.5961 14.023 12.7378 13.7858 12.8334C13.5485 12.9289 13.2949 12.9765 13.0394 12.9733C12.784 12.9737 12.5311 12.9233 12.2951 12.8251C12.059 12.7269 11.8445 12.5828 11.6638 12.401C11.4831 12.2192 11.3398 12.0033 11.242 11.7657C11.1442 11.528 11.0938 11.2733 11.0938 11.016C11.1097 8.488 11.1653 6.34133 11.4326 4.54133C6.345 4.55733 3.65029 4.71467 1.91382 6.44C0.00264718 8.34133 0 11.4 0 17.5147ZM6.44559 25.376C6.26407 25.1965 6.11988 24.9824 6.02145 24.7461C5.92302 24.5099 5.87232 24.2562 5.87232 24C5.87232 23.7438 5.92302 23.4901 6.02145 23.2539C6.11988 23.0176 6.26407 22.8035 6.44559 22.624L11.6603 17.4347C12.0296 17.0689 12.5268 16.8639 13.0447 16.8639C13.5626 16.8639 14.0598 17.0689 14.4291 17.4347C14.6106 17.6141 14.7548 17.8283 14.8533 18.0645C14.9517 18.3008 15.0024 18.5544 15.0024 18.8107C15.0024 19.0669 14.9517 19.3205 14.8533 19.5568C14.7548 19.7931 14.6106 20.0072 14.4291 20.1867L12.5497 22.0533H31.3068C32.3868 22.0533 33.2656 22.9253 33.2656 24C33.2656 25.0747 32.3868 25.9467 31.3068 25.9467H12.5471L14.4265 27.8133C14.608 27.9928 14.7522 28.2069 14.8506 28.4432C14.949 28.6795 14.9997 28.9331 14.9997 29.1893C14.9997 29.4456 14.949 29.6992 14.8506 29.9355C14.7522 30.1717 14.608 30.3859 14.4265 30.5653C14.0572 30.9311 13.56 31.1361 13.0421 31.1361C12.5241 31.1361 12.027 30.9311 11.6576 30.5653L6.44559 25.376Z" fill="white"/>
</svg>
