<svg width="29" height="29" viewBox="0 0 29 29" fill="none" xmlns="http://www.w3.org/2000/svg">
<path d="M20.4314 21.7132L27.4503 28.7337C27.5345 28.8181 27.6345 28.8851 27.7446 28.9308C27.8547 28.9765 27.9728 29 28.092 29C28.2112 29 28.3293 28.9765 28.4394 28.9308C28.5495 28.8851 28.6495 28.8181 28.7337 28.7337C28.8181 28.6495 28.8851 28.5495 28.9308 28.4394C28.9765 28.3293 29 28.2113 29 28.092C29 27.9728 28.9765 27.8548 28.9308 27.7447C28.8851 27.6346 28.8181 27.5345 28.7337 27.4503L22.2713 20.99C26.5856 16.0105 26.3808 8.44075 21.6514 3.71147C16.7026 -1.23716 8.65401 -1.23716 3.70886 3.71147C-1.23629 8.66009 -1.23629 16.7084 3.70886 21.657C4.88465 22.8383 6.28283 23.7748 7.82265 24.4126C9.36247 25.0505 11.0134 25.3769 12.6801 25.373C12.9205 25.373 13.151 25.2775 13.321 25.1076C13.491 24.9376 13.5865 24.7071 13.5865 24.4667C13.5865 24.2263 13.491 23.9958 13.321 23.8258C13.151 23.6558 12.9205 23.5603 12.6801 23.5603C11.2514 23.5642 9.8362 23.2848 8.51627 22.7381C7.19635 22.1914 5.99796 21.3884 4.99047 20.3755C2.95478 18.3334 1.81167 15.5676 1.81167 12.6842C1.81167 9.80087 2.95478 7.0351 4.99047 4.99303C7.03104 2.95585 9.79665 1.81166 12.6801 1.81166C15.5636 1.81166 18.3292 2.95585 20.3697 4.99303C22.4054 7.0351 23.5485 9.80087 23.5485 12.6842C23.5485 15.5676 22.4054 18.3334 20.3697 20.3755C20.2806 20.4646 20.2111 20.5713 20.1656 20.6888C20.1201 20.8063 20.0995 20.932 20.1053 21.0579C20.1111 21.1838 20.1431 21.3071 20.1993 21.4199C20.2554 21.5328 20.3345 21.6327 20.4314 21.7132Z" fill="#5B5858"/>
</svg>
