<svg width="24" height="15" viewBox="0 0 24 15" fill="none" xmlns="http://www.w3.org/2000/svg">
<path d="M16.1667 8.58334L21.8249 12.3555C21.9065 12.4098 22.0013 12.4409 22.0991 12.4456C22.197 12.4503 22.2943 12.4283 22.3807 12.3821C22.4671 12.3358 22.5393 12.267 22.5896 12.183C22.64 12.0989 22.6666 12.0028 22.6667 11.9048V3.02584C22.6667 2.93053 22.6416 2.8369 22.5939 2.7544C22.5461 2.67191 22.4775 2.60347 22.3948 2.55599C22.3122 2.50852 22.2185 2.48369 22.1232 2.48401C22.0279 2.48434 21.9343 2.5098 21.852 2.55784L16.1667 5.875" stroke="black" stroke-width="2" stroke-linecap="round" stroke-linejoin="round"/>
<path d="M14 1H3.16667C1.97005 1 1 1.97005 1 3.16667V11.8333C1 13.03 1.97005 14 3.16667 14H14C15.1966 14 16.1667 13.03 16.1667 11.8333V3.16667C16.1667 1.97005 15.1966 1 14 1Z" stroke="black" stroke-width="2" stroke-linecap="round" stroke-linejoin="round"/>
</svg>
